<?xml version="1.0" standalone="no"?>
<!DOCTYPE svg PUBLIC "-//W3C//DTD SVG 20010904//EN"
 "http://www.w3.org/TR/2001/REC-SVG-20010904/DTD/svg10.dtd">
<svg version="1.0" xmlns="http://www.w3.org/2000/svg"
 width="3384.000000pt" height="831.000000pt" viewBox="0 0 3384.000000 831.000000"
 preserveAspectRatio="xMidYMid meet">

<g transform="translate(0.000000,831.000000) scale(0.100000,-0.100000)"
fill="#000000" stroke="none">
<path d="M11125 8304 c-246 -19 -516 -56 -730 -100 -317 -66 -633 -155 -1444
-404 -1734 -531 -2936 -827 -4605 -1133 l-290 -53 75 -78 c191 -202 429 -347
678 -414 86 -23 115 -26 276 -26 198 0 161 -5 1540 202 l520 79 45 -32 c104
-75 241 -125 404 -150 201 -29 243 -25 896 104 972 192 1582 289 2285 365
1461 159 2832 128 3928 -90 70 -14 133 -24 139 -22 15 5 -134 169 -298 328
-172 166 -351 323 -564 493 -297 237 -296 235 -35 69 752 -478 1387 -1015
1782 -1507 124 -155 220 -296 338 -500 168 -288 318 -488 520 -691 133 -133
265 -236 322 -250 50 -13 231 122 391 291 177 187 337 408 497 685 43 74 101
169 128 210 320 476 841 975 1537 1470 226 161 670 450 670 436 0 -3 -28 -26
-62 -53 -369 -280 -723 -593 -945 -833 -74 -79 -130 -146 -125 -148 5 -1 92
13 193 32 433 82 901 135 1459 167 262 15 1030 15 1315 0 1089 -56 1952 -171
3363 -447 584 -114 645 -124 744 -124 211 0 457 70 584 166 l40 31 455 -68
c1484 -224 1608 -238 1800 -204 225 39 470 164 664 337 77 69 170 166 164 172
-2 1 -134 27 -294 55 -1556 282 -2859 601 -4465 1093 -659 201 -839 255 -1053
314 -818 225 -1382 279 -2097 199 -631 -71 -1028 -193 -2485 -765 -1342 -527
-1595 -607 -2125 -672 -157 -19 -553 -16 -725 5 -485 62 -799 162 -2055 657
-1508 594 -1899 712 -2600 785 -145 15 -641 28 -755 19z"/>
<path d="M28480 2745 c-236 -52 -267 -57 -370 -57 -63 0 -133 6 -173 16 -38 9
-73 16 -78 16 -6 0 -8 -65 -7 -167 l3 -168 50 -14 c32 -9 104 -14 205 -15 142
-1 167 2 295 32 247 58 361 60 517 7 40 -14 74 -25 76 -25 1 0 2 76 2 170 l0
169 -82 27 c-123 40 -281 43 -438 9z"/>
<path d="M996 2560 c-525 -61 -844 -331 -952 -809 -63 -282 -45 -700 42 -968
176 -539 649 -794 1429 -769 250 7 429 29 638 77 l87 21 0 609 0 609 -485 0
-485 0 0 -205 0 -205 223 -2 222 -3 3 -222 2 -222 -57 -7 c-95 -13 -412 -10
-483 4 -298 58 -478 211 -559 474 -56 186 -67 523 -22 693 59 226 194 373 401
436 95 30 279 33 378 6 214 -57 331 -198 332 -394 l0 -53 251 0 252 0 -6 138
c-12 336 -142 550 -412 682 -159 78 -307 108 -560 115 -88 2 -196 0 -239 -5z"/>
<path d="M15905 2560 c-318 -36 -559 -143 -746 -329 -193 -194 -298 -441 -329
-781 -33 -351 46 -707 211 -952 98 -146 265 -286 430 -362 370 -170 915 -164
1269 14 256 130 439 341 538 622 93 262 108 653 37 932 -47 187 -131 353 -243
485 -149 174 -414 311 -691 357 -108 18 -371 26 -476 14z m400 -464 c255 -71
429 -271 492 -566 24 -117 24 -343 0 -460 -80 -373 -318 -592 -663 -608 -443
-20 -737 280 -761 778 -13 278 56 509 201 667 96 104 202 164 351 199 80 18
299 12 380 -10z"/>
<path d="M25803 2559 c-132 -13 -307 -60 -419 -113 -320 -152 -501 -415 -560
-818 -23 -155 -15 -470 15 -609 84 -390 286 -666 607 -831 208 -107 424 -158
729 -174 194 -9 572 20 768 59 l62 13 3 218 2 219 -32 -7 c-247 -50 -686 -66
-868 -32 -328 61 -543 205 -659 440 -125 253 -131 620 -16 862 93 194 273 300
525 311 245 10 414 -66 497 -225 36 -68 49 -120 59 -224 l7 -78 243 0 244 0 0
88 c-1 186 -31 323 -102 471 -43 89 -62 116 -132 186 -69 69 -98 90 -186 134
-208 102 -473 139 -787 110z"/>
<path d="M32800 2564 c-323 -41 -523 -161 -631 -379 -50 -101 -69 -191 -69
-328 0 -248 75 -420 248 -563 90 -75 279 -166 517 -250 105 -36 219 -81 255
-98 87 -42 165 -117 180 -176 24 -90 -12 -191 -89 -244 -182 -126 -693 -102
-1093 52 l-78 30 0 -223 0 -223 98 -31 c255 -82 474 -115 762 -115 295 0 434
23 598 100 125 58 207 136 263 249 57 115 72 199 66 375 -5 176 -24 244 -99
355 -100 150 -261 247 -613 370 -222 78 -314 120 -383 174 -132 105 -144 307
-24 412 56 50 117 72 208 77 203 11 331 -94 342 -280 l5 -78 254 0 255 0 -7
93 c-9 132 -23 202 -56 287 -78 203 -259 342 -514 395 -78 16 -324 28 -395 19z"/>
<path d="M2723 1558 c3 -966 3 -974 25 -1055 70 -262 216 -382 535 -440 74
-13 186 -17 585 -20 l492 -5 0 231 0 230 -442 3 c-504 4 -514 5 -592 81 -67
64 -78 111 -84 350 l-4 197 456 0 456 0 0 220 0 220 -455 0 -455 0 0 260 0
260 540 0 540 0 0 220 0 220 -800 0 -801 0 4 -972z"/>
<path d="M4800 1291 l0 -1241 270 0 270 0 0 284 0 284 73 21 c62 19 261 87
307 105 31 13 235 -371 316 -591 l38 -103 278 0 c239 0 278 2 278 15 0 23 -65
211 -105 305 -69 161 -230 448 -338 602 -10 15 -6 22 28 50 121 96 238 247
293 379 50 121 65 220 59 383 -6 161 -20 224 -77 345 -69 145 -219 273 -386
332 -176 61 -184 62 -766 66 l-538 4 0 -1240z m951 780 c117 -37 191 -104 226
-204 26 -76 23 -241 -6 -321 -47 -132 -144 -235 -292 -311 -87 -45 -282 -115
-320 -115 -19 0 -19 11 -19 483 0 266 3 487 8 491 4 5 81 6 172 3 129 -4 179
-9 231 -26z"/>
<path d="M7732 2423 c-344 -622 -594 -1243 -747 -1852 -41 -167 -105 -472
-105 -506 0 -13 32 -15 267 -13 l266 3 19 110 c34 198 19 178 164 225 281 91
611 152 878 162 l69 3 18 -70 c10 -38 32 -142 49 -230 17 -88 33 -170 36 -182
l4 -23 265 0 c257 0 265 1 265 20 0 38 -71 375 -115 550 -94 368 -223 735
-391 1118 -67 152 -259 535 -340 682 l-59 105 -242 3 -241 2 -60 -107z m381
-670 c42 -87 101 -221 133 -298 64 -158 164 -433 164 -452 0 -8 -13 -13 -34
-13 -113 0 -443 -58 -647 -114 -68 -19 -126 -32 -128 -30 -10 10 128 411 210
609 59 141 210 455 219 455 4 0 41 -71 83 -157z"/>
<path d="M9570 1290 l0 -1240 265 0 265 0 2 907 3 908 171 -170 c300 -299 561
-638 827 -1076 l77 -126 0 -222 0 -221 265 0 265 0 0 1240 0 1240 -265 0 -265
0 -2 -587 -3 -586 -46 69 c-66 98 -242 333 -330 439 -173 207 -393 424 -588
581 l-105 84 -268 0 -268 0 0 -1240z"/>
<path d="M12280 1290 l0 -1240 349 0 c368 0 482 9 681 51 379 82 729 287 923
541 169 221 244 438 254 738 11 358 -74 615 -272 815 -180 181 -413 284 -735
324 -50 7 -312 11 -642 11 l-558 0 0 -1240z m1090 765 c183 -28 307 -82 400
-175 111 -111 161 -254 162 -460 1 -242 -67 -420 -221 -584 -177 -187 -446
-293 -813 -321 l-88 -7 0 781 0 781 233 0 c152 0 265 -5 327 -15z"/>
<path d="M18640 1290 l0 -1240 265 0 265 0 0 450 0 450 445 0 445 0 0 230 0
230 -445 0 -445 0 0 330 0 330 545 0 545 0 0 230 0 230 -810 0 -810 0 0 -1240z"/>
<path d="M21219 2438 c-309 -548 -576 -1194 -729 -1765 -49 -184 -130 -557
-130 -601 l0 -22 265 0 265 0 4 23 c3 12 16 78 28 147 l23 125 65 23 c265 95
666 175 930 184 l85 3 27 -120 c15 -66 38 -178 51 -250 l24 -130 266 -3 c250
-2 267 -1 267 15 0 10 -20 117 -45 238 -97 481 -248 947 -462 1430 -84 188
-296 612 -367 733 l-37 62 -239 0 -239 0 -52 -92z m368 -675 c76 -159 135
-294 190 -438 41 -106 113 -314 113 -325 0 -4 -37 -10 -82 -14 -189 -15 -443
-63 -641 -121 -48 -14 -89 -25 -91 -25 -7 0 74 250 125 388 96 257 288 682
308 682 4 0 40 -66 78 -147z"/>
<path d="M23033 1558 c3 -944 4 -976 24 -1065 54 -233 169 -357 386 -413 127
-32 276 -40 749 -40 l458 0 0 234 0 235 -437 3 c-487 5 -512 8 -576 71 -64 64
-61 21 -65 1030 l-3 917 -270 0 -270 0 4 -972z"/>
<path d="M30010 1617 c0 -554 4 -944 10 -993 43 -344 193 -496 551 -560 77
-14 183 -18 592 -21 l497 -5 0 231 0 230 -447 3 c-406 3 -453 5 -498 22 -146
54 -189 159 -183 456 l3 145 453 3 452 2 0 220 0 220 -452 2 -453 3 0 255 0
255 538 3 537 2 0 220 0 220 -800 0 -800 0 0 -913z"/>
<path d="M28185 2174 c-162 -25 -342 -93 -460 -174 -215 -148 -356 -396 -396
-698 -13 -102 -7 -381 11 -462 40 -186 106 -332 204 -456 82 -104 183 -182
321 -249 174 -85 322 -115 567 -115 234 0 412 37 573 118 96 48 149 85 229
161 145 139 232 304 283 533 27 126 25 458 -5 585 -86 372 -327 625 -692 727
-159 45 -450 59 -635 30z m432 -459 c180 -57 299 -192 354 -402 24 -93 29
-263 10 -363 -62 -320 -305 -515 -606 -485 -284 27 -467 230 -506 558 -26 223
48 460 182 583 145 133 361 174 566 109z"/>
</g>
</svg>
